HIERARCHY
ROOT Hips
{
 OFFSET 0.000000 0.000000 0.000000
 CHANNELS 6 Xposition Yposition Zposition Yrotation Xrotation Zrotation
 JOINT Chest
 {
  OFFSET 0.000000 9.585900 0.002600
  CHANNELS 3 Yrotation Xrotation Zrotation
  JOINT Chest2
  {
   OFFSET 0.000000 9.601200 -0.005300
   CHANNELS 3 Yrotation Xrotation Zrotation
   JOINT Chest3
   {
    OFFSET 0.000000 9.561800 0.000000
    CHANNELS 3 Yrotation Xrotation Zrotation
    JOINT Chest4
    {
     OFFSET 0.000000 9.552100 0.000000
     CHANNELS 3 Yrotation Xrotation Zrotation
     JOINT Neck
     {
      OFFSET 0.000000 14.453000 0.000000
      CHANNELS 3 Yrotation Xrotation Zrotation
      JOINT Head
      {
       OFFSET 0.000000 8.936500 -0.011300
       CHANNELS 3 Yrotation Xrotation Zrotation
       End Site
       {
        OFFSET 0.000000 17.073600 -0.006000
       }
      }
     }
     JOINT RightCollar
     {
      OFFSET -2.921100 9.558500 0.000000
      CHANNELS 3 Yrotation Xrotation Zrotation
      JOINT RightShoulder
      {
       OFFSET -13.519700 0.000000 0.000000
       CHANNELS 3 Yrotation Xrotation Zrotation
       JOINT RightElbow
       {
        OFFSET 0.000000 -29.696600 0.000000
        CHANNELS 3 Yrotation Xrotation Zrotation
        JOINT RightWrist
        {
         OFFSET 0.000000 -24.004700 0.000000
         CHANNELS 3 Yrotation Xrotation Zrotation
         End Site
         {
          OFFSET 0.000000 -17.728500 0.000000
         }
        }
       }
      }
     }
     JOINT LeftCollar
     {
      OFFSET 2.921100 9.558500 0.000000
      CHANNELS 3 Yrotation Xrotation Zrotation
      JOINT LeftShoulder
      {
       OFFSET 13.519700 0.000000 0.000000
       CHANNELS 3 Yrotation Xrotation Zrotation
       JOINT LeftElbow
       {
        OFFSET 0.000000 -29.696600 0.000000
        CHANNELS 3 Yrotation Xrotation Zrotation
        JOINT LeftWrist
        {
         OFFSET 0.000000 -24.004700 0.000000
         CHANNELS 3 Yrotation Xrotation Zrotation
         End Site
         {
          OFFSET 0.000000 -17.728500 0.000000
         }
        }
       }
      }
     }
    }
   }
  }
 }
 JOINT RightHip
 {
  OFFSET -7.771700 -0.012900 -0.001300
  CHANNELS 3 Yrotation Xrotation Zrotation
  JOINT RightKnee
  {
   OFFSET 0.000000 -40.869800 0.001200
   CHANNELS 3 Yrotation Xrotation Zrotation
   JOINT RightAnkle
   {
    OFFSET 0.000000 -39.717900 0.002100
    CHANNELS 3 Yrotation Xrotation Zrotation
    JOINT RightToe
    {
     OFFSET 0.000000 -4.965400 11.033500
     CHANNELS 3 Yrotation Xrotation Zrotation
     End Site
     {
      OFFSET 0.000000 -1.423100 5.872300
     }
    }
   }
  }
 }
 JOINT LeftHip
 {
  OFFSET 7.771700 -0.012900 -0.001300
  CHANNELS 3 Yrotation Xrotation Zrotation
  JOINT LeftKnee
  {
   OFFSET 0.000000 -40.869800 0.001200
   CHANNELS 3 Yrotation Xrotation Zrotation
   JOINT LeftAnkle
   {
    OFFSET 0.000000 -39.717900 0.002100
    CHANNELS 3 Yrotation Xrotation Zrotation
    JOINT LeftToe
    {
     OFFSET 0.000000 -4.965400 11.033500
     CHANNELS 3 Yrotation Xrotation Zrotation
     End Site
     {
      OFFSET 0.000000 -1.423100 5.872300
     }
    }
   }
  }
 }
}
MOTION
Frames: 15
Frame Time: 0.008333
-30.510667 56.035689 37.059525 -170.233597 -29.169774 -9.486146 -4.260586 17.389979 6.376599 -2.463762 9.737570 2.563088 -3.025793 12.187502 3.134840 -2.457272 9.738397 2.575918 5.608058 19.229383 -2.741144 6.718911 -5.128940 -4.250944 0.930483 -2.664017 -5.634961 3.273542 -23.608198 0.636296 66.754340 -43.177927 -50.553939 9.061581 5.426354 -14.876359 -16.566612 -2.018245 -4.286010 -2.156666 -30.596924 14.144170 -92.165850 -82.191494 98.131767 21.470748 -13.483474 6.716851 -24.366881 -29.175952 4.658161 74.323987 87.953721 72.024439 1.261497 -27.826310 -4.024410 -0.256917 2.120145 -0.112511 -14.122694 -45.512529 4.996384 177.913852 73.488500 175.725777 -0.283846 -26.694713 0.689713 -0.069938 -0.776070 -0.035161
-30.516850 56.037514 37.061783 -170.231089 -29.169662 -9.476944 -4.272273 17.392952 6.346885 -2.456131 9.736447 2.570214 -3.028900 12.186102 3.129327 -2.452405 9.740003 2.575930 5.601584 19.228751 -2.733463 6.708487 -5.129085 -4.247235 0.924259 -2.681838 -5.647397 3.267649 -23.588180 0.654364 66.765493 -43.185570 -50.527577 9.053411 5.417025 -14.898001 -16.583974 -1.977191 -4.251171 -2.162413 -30.601452 14.129989 -92.153205 -82.131320 98.128322 21.423550 -13.521249 6.748748 -24.357166 -29.186233 4.641364 74.353900 87.964058 72.056356 1.261767 -27.814827 -4.014482 -0.251942 2.109483 -0.113209 -14.117741 -45.513897 4.984735 177.919462 73.494334 175.721373 -0.287945 -26.688685 0.698882 -0.069284 -0.777094 -0.035058
-30.559811 56.035390 37.064796 -170.218779 -29.184849 -9.252994 -4.357595 17.392672 6.096351 -2.460610 9.736991 2.555833 -3.019672 12.186417 3.137450 -2.456067 9.738378 2.568984 5.602967 19.231088 -2.722233 6.700255 -5.128447 -4.243041 0.923976 -2.702920 -5.666763 3.256116 -23.559097 0.681753 66.772397 -43.198847 -50.496746 9.044955 5.409469 -14.922296 -16.595789 -1.937984 -4.215452 -2.176684 -30.599136 14.116144 -91.909374 -81.959377 97.886191 21.465478 -13.565750 6.786480 -24.240881 -29.369963 4.390404 78.646620 88.018775 76.349926 1.149573 -27.643206 -3.988103 -0.158228 1.874203 -0.070194 -13.893048 -45.538206 4.634845 177.822689 73.546712 175.586336 -0.314423 -26.648637 0.738338 -0.061297 -0.778679 -0.030937
-30.565169 56.037222 37.066528 -170.228881 -29.186884 -9.244689 -4.352090 17.392670 6.088713 -2.458923 9.737485 2.556371 -3.019567 12.186412 3.135989 -2.462041 9.736419 2.553051 5.565986 19.238333 -2.720711 6.706540 -5.131790 -4.231525 0.926438 -2.726175 -5.682816 3.244784 -23.528976 0.713042 66.769558 -43.204346 -50.463610 9.038663 5.399430 -14.947169 -16.610185 -1.904184 -4.179972 -2.196218 -30.594413 14.099873 -91.728345 -81.806510 97.730131 21.472513 -13.575937 6.790370 -24.224582 -29.374259 4.382018 78.589585 88.022084 76.293741 1.148294 -27.638744 -3.986404 -0.157404 1.872406 -0.067060 -13.877297 -45.536398 4.629923 177.817968 73.550495 175.575707 -0.319635 -26.645098 0.745282 -0.060923 -0.780372 -0.028708
-30.569973 56.038979 37.067945 -170.230138 -29.187419 -9.244986 -4.353359 17.392466 6.085410 -2.461906 9.736288 2.548627 -3.019403 12.186067 3.130484 -2.461959 9.736311 2.548597 5.557921 19.248333 -2.709424 6.692087 -5.129355 -4.217599 0.933170 -2.750901 -5.704775 3.231591 -23.499237 0.754723 66.765599 -43.200152 -50.402652 9.028219 5.395953 -15.000861 -16.619436 -1.870884 -4.148902 -2.216224 -30.590585 14.078268 -91.697104 -81.723597 97.735993 21.390197 -13.542427 6.762347 -24.218085 -29.374696 4.376395 78.505749 88.019968 76.211753 1.145695 -27.636110 -3.984262 -0.155536 1.873060 -0.065008 -13.875289 -45.533906 4.630671 177.813994 73.553780 175.567431 -0.321868 -26.646794 0.745238 -0.060905 -0.777197 -0.023923
-30.574571 56.040539 37.069110 -170.230323 -29.186901 -9.247780 -4.349239 17.396516 6.071460 -2.458976 9.733762 2.554178 -3.017703 12.186458 3.124857 -2.460112 9.737752 2.531612 5.553565 19.248503 -2.676082 6.667889 -5.122244 -4.194038 0.933963 -2.785838 -5.710362 3.212305 -23.456332 0.794320 66.773118 -43.211634 -50.397878 9.025597 5.394808 -15.013703 -16.627809 -1.850454 -4.105477 -2.237712 -30.575806 14.057271 -91.534943 -81.550237 97.584202 21.379654 -13.498607 6.725093 -24.209515 -29.373776 4.370997 78.386167 88.015663 76.096930 1.144671 -27.637742 -3.984152 -0.155034 1.877416 -0.063340 -13.868272 -45.533569 4.629339 177.814594 73.555827 175.569275 -0.325035 -26.646581 0.751092 -0.059703 -0.777220 -0.023566
-30.540680 56.045461 37.069892 -170.253278 -29.165301 -9.469824 -4.258517 17.393049 6.309843 -2.457146 9.733031 2.547782 -3.011950 12.193820 3.104895 -2.456614 9.731053 2.555506 5.551659 19.247869 -2.664575 6.628287 -5.115890 -4.166890 0.938128 -2.822413 -5.744112 3.186615 -23.411605 0.841319 66.781644 -43.221031 -50.394302 9.034092 5.385168 -15.011774 -16.635102 -1.836599 -4.085878 -2.246151 -30.562646 14.028756 -91.380156 -81.373676 97.422041 21.357738 -13.433678 6.666581 -24.300105 -29.201873 4.616073 73.920254 87.965689 71.637094 1.265634 -27.800618 -4.001110 -0.250951 2.110897 -0.106539 -14.077554 -45.515531 4.981493 177.915232 73.507864 175.704478 -0.306554 -26.683301 0.726240 -0.066190 -0.776319 -0.026844
-30.544591 56.046455 37.070834 -170.252417 -29.159756 -9.477210 -4.257379 17.389694 6.315106 -2.454306 9.738979 2.536325 -3.010331 12.189361 3.115308 -2.447878 9.750507 2.517191 5.534788 19.229863 -2.627182 6.559302 -5.134031 -4.120278 0.934627 -2.882932 -5.750505 3.162801 -23.367724 0.891741 66.780996 -43.225663 -50.368165 9.033954 5.374830 -15.038439 -16.665500 -1.809823 -4.011824 -2.222578 -30.573581 13.976394 -91.292234 -81.226793 97.319848 21.293601 -13.342480 6.581414 -24.297664 -29.203153 4.623554 73.767680 87.963197 71.480725 1.269802 -27.801589 -3.997395 -0.258291 2.114933 -0.104721 -14.084584 -45.520176 4.992071 177.916441 73.507446 175.704040 -0.309377 -26.682928 0.727529 -0.066184 -0.776759 -0.024685
-30.548520 56.047251 37.071529 -170.247997 -29.152311 -9.485359 -4.252778 17.392713 6.312621 -2.450174 9.741114 2.533790 -3.004969 12.191957 3.112238 -2.450249 9.741126 2.533823 5.514346 19.230741 -2.630199 6.535606 -5.154681 -4.092383 0.937779 -2.927227 -5.798409 3.142311 -23.319376 0.949173 66.784471 -43.222740 -50.350567 9.045263 5.365964 -15.066281 -16.670335 -1.806450 -4.000618 -2.224148 -30.548191 13.946520 -91.348258 -81.139988 97.374157 21.158028 -13.220197 6.462049 -24.298210 -29.205485 4.622733 73.657872 87.955936 71.376205 1.273458 -27.804388 -3.999778 -0.261376 2.120945 -0.104342 -14.090264 -45.528214 5.000861 177.926705 73.505717 175.713888 -0.312283 -26.678137 0.732048 -0.066498 -0.780480 -0.023656
-30.552485 56.048206 37.071493 -170.243501 -29.147096 -9.492209 -4.244802 17.399878 6.314650 -2.440129 9.756207 2.517281 -2.996942 12.197284 3.104172 -2.450057 9.727293 2.553603 5.496064 19.215873 -2.610658 6.509266 -5.178266 -4.067815 0.932741 -2.986622 -5.831118 3.123709 -23.264322 1.011037 66.793968 -43.215155 -50.344083 9.045101 5.363365 -15.097318 -16.695894 -1.792609 -3.948800 -2.200639 -30.539570 13.897866 -91.191694 -80.953915 97.188326 21.105086 -13.124802 6.345163 -24.297790 -29.206174 4.622110 73.572773 87.951289 71.294197 1.272371 -27.807229 -4.000894 -0.262368 2.125612 -0.102068 -14.086727 -45.533962 5.002281 177.926640 73.503869 175.717706 -0.316867 -26.674010 0.740126 -0.064710 -0.783507 -0.025645
-30.525812 56.048150 37.077970 -170.314948 -29.086722 -9.635998 -4.123696 17.361761 6.494164 -2.438963 9.751890 2.521606 -2.991002 12.200879 3.099753 -2.444271 9.737425 2.536685 5.480337 19.186219 -2.576546 6.482337 -5.201401 -4.042919 0.926955 -3.059453 -5.847591 3.115263 -23.207307 1.070740 66.806715 -43.186277 -50.306770 9.015462 5.363307 -15.165121 -16.732169 -1.760273 -3.855768 -2.151446 -30.554419 13.826491 -90.969861 -80.747003 96.930718 21.049009 -13.043252 6.220103 -24.340966 -29.144349 4.824739 70.865188 87.906658 68.587581 1.430624 -27.907510 -4.013142 -0.393243 2.288761 -0.165018 -14.219210 -45.571909 5.289263 177.999051 73.465630 175.817502 -0.301545 -26.701856 0.722659 -0.070817 -0.781539 -0.030164
-30.561824 56.050188 37.070311 -170.239748 -29.139055 -9.488065 -4.236818 17.413386 6.295074 -2.436395 9.756941 2.517665 -2.982730 12.214035 3.089555 -2.443904 9.727216 2.543654 5.438705 19.183175 -2.579365 6.471551 -5.233653 -4.018420 0.926275 -3.105498 -5.875742 3.122559 -23.146447 1.108403 66.819701 -43.175081 -50.297572 9.000328 5.370589 -15.214861 -16.751125 -1.742949 -3.814176 -2.121364 -30.552019 13.783679 -90.700907 -80.551447 96.629835 20.950486 -12.964924 6.087072 -24.293631 -29.216676 4.610008 73.552359 87.955248 71.268023 1.280722 -27.806687 -3.991681 -0.262561 2.124068 -0.106328 -14.070253 -45.541572 4.986090 177.916026 73.505236 175.707550 -0.320677 -26.674647 0.752859 -0.065278 -0.783659 -0.027787
-30.565090 56.050963 37.070246 -170.249454 -29.129648 -9.483491 -4.227321 17.416985 6.288887 -2.432953 9.751500 2.520329 -2.974777 12.229040 3.080861 -2.428141 9.755819 2.517814 5.419171 19.130750 -2.540723 6.434274 -5.262077 -3.999570 0.911052 -3.208594 -5.886999 3.102630 -23.095487 1.172308 66.829072 -43.160601 -50.264934 8.994128 5.377412 -15.252991 -16.780865 -1.762855 -3.734451 -2.099455 -30.560665 13.757969 -90.307022 -80.324913 96.202683 20.843487 -12.891944 5.953652 -24.290235 -29.228479 4.613487 73.561981 87.957236 71.273283 1.280641 -27.803176 -3.985347 -0.261321 2.121758 -0.109993 -14.060269 -45.550442 4.987947 177.904257 73.505335 175.695207 -0.324720 -26.676745 0.756389 -0.065360 -0.783496 -0.027273
-30.566820 56.051773 37.070454 -170.258584 -29.116226 -9.484768 -4.211488 17.432489 6.285430 -2.423886 9.759747 2.514882 -2.972500 12.214900 3.089238 -2.423911 9.759712 2.514867 5.415268 19.103574 -2.521912 6.412244 -5.276154 -3.991158 0.910283 -3.301082 -5.937984 3.090658 -23.018455 1.245508 66.830348 -43.155126 -50.242056 8.989516 5.376060 -15.291095 -16.790524 -1.776777 -3.698873 -2.085017 -30.530146 13.738862 -90.057395 -80.041958 95.930477 20.728935 -12.820852 5.813803 -24.287672 -29.238434 4.619714 73.467714 87.950783 71.181682 1.283950 -27.805300 -3.985257 -0.265464 2.127870 -0.113809 -14.056455 -45.562541 5.000642 177.905336 73.504958 175.695998 -0.325567 -26.679977 0.759026 -0.065568 -0.782759 -0.026154
-30.570676 56.052713 37.070242 -170.264438 -29.105951 -9.472108 -4.209389 17.428133 6.273224 -2.420934 9.765681 2.510671 -2.969299 12.222609 3.083216 -2.421125 9.762873 2.511567 5.393181 19.082312 -2.513807 6.365147 -5.314436 -3.975931 0.913991 -3.381313 -5.976413 3.083995 -22.946038 1.297605 66.828036 -43.156585 -50.216359 8.989758 5.370564 -15.328938 -16.807042 -1.779434 -3.649951 -2.057713 -30.474271 13.699931 -89.954023 -79.697481 95.817533 20.598594 -12.747594 5.676158 -24.280925 -29.257451 4.611441 73.557379 87.962817 71.270495 1.287386 -27.797228 -3.979771 -0.260395 2.118084 -0.114216 -14.037153 -45.573460 4.994605 177.936000 73.508127 175.720182 -0.330433 -26.679862 0.772272 -0.062879 -0.783104 -0.025677
